<svg width="72" height="72" viewBox="0 0 72 72" fill="none" xmlns="http://www.w3.org/2000/svg">
<path d="M36 72C16.1487 72 0 55.8513 0 36C0 16.1487 16.1487 0 36 0C55.8513 0 72 16.1487 72 36C72 55.8513 55.8513 72 36 72ZM36 4.8C18.7983 4.8 4.8 18.7983 4.8 36C4.8 53.2017 18.7983 67.2 36 67.2C53.2017 67.2 67.2 53.2017 67.2 36C67.2 18.7983 53.2017 4.8 36 4.8ZM32.898 47.298L54.498 25.698C55.437 24.759 55.437 23.2441 54.498 22.305C53.5589 21.366 52.044 21.366 51.1049 22.305L31.203 42.207L23.301 34.305C22.362 33.366 20.8471 33.366 19.908 34.305C18.969 35.2441 18.969 36.759 19.908 37.698L29.508 47.298C29.976 47.766 30.5911 48 31.206 48C31.821 48 32.436 47.766 32.904 47.298H32.898Z" fill="#28B446"/>
</svg>
