<svg width="94" height="127" viewBox="0 0 94 127" fill="none" xmlns="http://www.w3.org/2000/svg">
<path d="M46.752 24.002C45.5633 24.4975 44.2879 24.7518 43 24.75C37.615 24.75 33.25 20.385 33.25 15C33.25 13.67 33.516 12.403 33.998 11.248C32.2215 11.9892 30.704 13.2394 29.6366 14.8413C28.5693 16.4432 27.9998 18.3251 28 20.25C28 25.635 32.365 30 37.75 30C39.6749 30.0002 41.5568 29.4308 43.1587 28.3634C44.7606 27.2961 46.0109 25.7786 46.752 24.002Z" stroke="white" stroke-width="1.5" stroke-linecap="round" stroke-linejoin="round"/>
<path d="M54.813 15.904L54 18.75L53.187 15.904C52.9769 15.1689 52.5829 14.4994 52.0423 13.9587C51.5016 13.4181 50.8321 13.0241 50.097 12.814L47.25 12L50.096 11.187C50.8311 10.9769 51.5006 10.5829 52.0413 10.0423C52.5819 9.50162 52.9759 8.83214 53.186 8.097L54 5.25L54.813 8.096C55.0231 8.83114 55.4171 9.50062 55.9577 10.0413C56.4984 10.5819 57.1679 10.9759 57.903 11.186L60.75 12L57.904 12.813C57.1689 13.0231 56.4994 13.4171 55.9587 13.9577C55.4181 14.4984 55.0241 15.1679 54.814 15.903L54.813 15.904ZM63.259 8.715L63 9.75L62.741 8.715C62.5927 8.12159 62.286 7.57962 61.8536 7.14703C61.4212 6.71444 60.8794 6.40749 60.286 6.259L59.25 6L60.286 5.741C60.8794 5.59251 61.4212 5.28556 61.8536 4.85297C62.286 4.42038 62.5927 3.87841 62.741 3.285L63 2.25L63.259 3.285C63.4073 3.87854 63.7142 4.42059 64.1468 4.85319C64.5794 5.28579 65.1215 5.59267 65.715 5.741L66.75 6L65.715 6.259C65.1215 6.40733 64.5794 6.71421 64.1468 7.14681C63.7142 7.57941 63.4073 8.12147 63.259 8.715ZM61.894 20.567L61.5 21.75L61.106 20.567C60.9955 20.2356 60.8094 19.9345 60.5625 19.6875C60.3155 19.4406 60.0144 19.2545 59.683 19.144L58.5 18.75L59.683 18.356C60.0144 18.2455 60.3155 18.0594 60.5625 17.8125C60.8094 17.5655 60.9955 17.2644 61.106 16.933L61.5 15.75L61.894 16.933C62.0045 17.2644 62.1906 17.5655 62.4375 17.8125C62.6845 18.0594 62.9856 18.2455 63.317 18.356L64.5 18.75L63.317 19.144C62.9856 19.2545 62.6845 19.4406 62.4375 19.6875C62.1906 19.9345 62.0045 20.2356 61.894 20.567Z" stroke="white" stroke-width="1.5" stroke-linecap="round" stroke-linejoin="round"/>
<path d="M52.8756 115.25V85.875C52.8756 85.0959 53.1851 84.3488 53.736 83.7979C54.2869 83.247 55.0341 82.9375 55.8131 82.9375H67.5631C68.3422 82.9375 69.0894 83.247 69.6403 83.7979C70.1912 84.3488 70.5006 85.0959 70.5006 85.875V115.25M52.8756 115.25H9.24398M52.8756 115.25H70.5006M70.5006 115.25H84.7573M79.3131 115.25V69.6169C80.8743 68.7157 82.2072 67.4674 83.2087 65.9686C84.2101 64.4698 84.8533 62.7606 85.0884 60.9734C85.3236 59.1862 85.1444 57.3689 84.5647 55.662C83.985 53.9552 83.0203 52.4046 81.7454 51.1303L77.0846 46.4733C75.9838 45.3712 74.4905 44.7514 72.9329 44.75H21.0645C19.5069 44.7514 18.0135 45.3712 16.9128 46.4733L12.2559 51.1263C10.9839 52.4021 10.0219 53.953 9.444 55.6594C8.86611 57.3657 8.68779 59.182 8.9228 60.9682C9.1578 62.7544 9.79984 64.4627 10.7994 65.9615C11.799 67.4604 13.1294 68.7096 14.6881 69.613M14.6881 115.246V69.6208C17.0382 70.9759 19.7847 71.4764 22.4617 71.0374C25.1387 70.5983 27.5815 69.2468 29.3756 67.2121C30.4774 68.4632 31.8333 69.465 33.353 70.1506C34.8726 70.8361 36.521 71.1896 38.1881 71.1875C41.6975 71.1875 44.8465 69.6483 47.0006 67.2082C48.102 68.46 49.4578 69.4626 50.9775 70.1488C52.4972 70.835 54.1457 71.1891 55.8131 71.1875C59.3225 71.1875 62.4715 69.6483 64.6256 67.2082C66.4203 69.2423 68.8633 70.593 71.5403 71.0314C74.2173 71.4697 76.9635 70.9686 79.3131 69.613M26.4381 103.496H41.1256C41.9047 103.496 42.6519 103.187 43.2028 102.636C43.7537 102.085 44.0631 101.338 44.0631 100.559V85.875C44.0631 85.0959 43.7537 84.3488 43.2028 83.7979C42.6519 83.247 41.9047 82.9375 41.1256 82.9375H26.4381C25.6591 82.9375 24.9119 83.247 24.361 83.7979C23.8101 84.3488 23.5006 85.0959 23.5006 85.875V100.563C23.5006 102.188 24.8166 103.496 26.4381 103.496Z" stroke="white" stroke-width="3" stroke-linecap="round" stroke-linejoin="round"/>
<path d="M58 96L61.5 92L64.5 96H58Z" stroke="white" stroke-width="0.5"/>
<rect x="57" y="95.5" width="9" height="4" rx="1" fill="white"/>
</svg>
