<svg width="311" height="283" viewBox="0 0 311 283" fill="none" xmlns="http://www.w3.org/2000/svg">
<path d="M13.4222 84.8602C19.2667 71.0951 30.8256 53.8202 42.0624 43.9557C57.4788 30.4374 77.4242 25.0424 92.0389 21.9165C125.297 14.8009 162.345 23.0682 164.407 50.9616C165.229 62.0395 157.391 80.3221 162.612 92.7573C167.538 104.48 169.141 109.429 180.269 115.571C193.218 122.721 199.741 123.461 205.778 125.066C223.065 129.658 227.895 109.552 262.592 119.019C304.278 130.392 309.485 177.747 304.758 204.372C300.03 231.005 279.201 262.312 254.685 273.712C247.703 276.961 230.451 281.218 230.451 281.218L117.253 283.001C117.253 283.001 51.1889 275.11 18.0677 220.79C-4.89248 183.122 -5.44747 129.323 13.4222 84.8602Z" fill="#E4F2FF"/>
<path d="M260.072 67.0979C280.29 67.0979 296.68 52.0775 296.68 33.549C296.68 15.0204 280.29 0 260.072 0C239.853 0 223.463 15.0204 223.463 33.549C223.463 52.0775 239.853 67.0979 260.072 67.0979Z" fill="#E4F2FF"/>
<path d="M276.041 29.2773H28.4746V246.365H276.041V29.2773Z" fill="white" stroke="#FE0000" stroke-miterlimit="10"/>
<path d="M265.133 39.8828H39.375V235.754H265.133V39.8828Z" fill="#E4F2FF" stroke="#FE0000" stroke-miterlimit="10"/>
<path d="M130.238 235.753L128.621 179.219H125.346H123.968H120.693L119.076 235.753H130.238Z" fill="#E4F2FF" stroke="#FE0000" stroke-miterlimit="10"/>
<path d="M130.306 190.496H119.85C117.924 190.496 116.369 189.131 116.369 187.445C116.369 185.759 117.924 184.395 119.85 184.395H130.306C132.231 184.395 133.786 185.759 133.786 187.445C133.786 189.131 132.231 190.496 130.306 190.496Z" fill="#E4F2FF" stroke="#FE0000" stroke-miterlimit="10"/>
<path d="M175.466 180.021H72.9502C69.6819 180.021 67.0371 177.375 67.0371 174.105C67.0371 170.836 69.6819 168.189 72.9502 168.189H175.466C178.734 168.189 181.379 170.836 181.379 174.105C181.379 177.375 178.734 180.021 175.466 180.021Z" fill="#E4F2FF" stroke="#FE0000" stroke-miterlimit="10"/>
<path d="M104.262 167.771H60.425C58.5065 167.771 56.9512 166.215 56.9512 164.296C56.9512 162.376 58.5065 160.82 60.425 160.82H104.262C106.181 160.82 107.736 162.376 107.736 164.296C107.736 166.215 106.181 167.771 104.262 167.771Z" fill="#FE0000" stroke="#FE0000" stroke-miterlimit="10"/>
<path d="M63.4599 164.021L50.3457 110.215" stroke="#FE0000" stroke-width="8" stroke-miterlimit="10" stroke-linecap="round"/>
<path d="M100.541 164.021L113.655 110.215" stroke="#FE0000" stroke-width="8" stroke-miterlimit="10" stroke-linecap="round"/>
<path d="M107.858 134.016C102.363 139.692 92.8325 143.448 81.993 143.448C71.736 143.448 62.6506 140.082 57.0527 134.914" stroke="#FE0000" stroke-width="5" stroke-miterlimit="10" stroke-linecap="round"/>
<path d="M63.459 164.555V215.516" stroke="#FE0000" stroke-width="8" stroke-miterlimit="10" stroke-linecap="round"/>
<path d="M144.706 167.771H188.544C190.462 167.771 192.017 166.215 192.017 164.296C192.017 162.376 190.462 160.82 188.544 160.82H144.706C142.788 160.82 141.232 162.376 141.232 164.296C141.232 166.215 142.788 167.771 144.706 167.771Z" fill="#FE0000"/>
<path d="M185.502 164.021L198.616 110.215" stroke="#FE0000" stroke-width="8" stroke-miterlimit="10" stroke-linecap="round"/>
<path d="M148.421 164.021L135.307 110.215" stroke="#FE0000" stroke-width="8" stroke-miterlimit="10" stroke-linecap="round"/>
<path d="M141.109 134.016C146.604 139.692 156.135 143.448 166.975 143.448C177.232 143.448 186.317 140.082 191.915 134.914" stroke="#FE0000" stroke-width="5" stroke-miterlimit="10" stroke-linecap="round"/>
<path d="M185.502 164.555V215.516" stroke="#FE0000" stroke-width="8" stroke-miterlimit="10" stroke-linecap="round"/>
<path d="M125.632 114.178L66.502 72.0332" stroke="white" stroke-miterlimit="10"/>
<path d="M111.298 116.393L52.168 74.248" stroke="white" stroke-miterlimit="10"/>
<path d="M125.632 136.862L66.502 94.7168" stroke="white" stroke-miterlimit="10"/>
<path d="M87.2221 185.136L55.6836 164.311" stroke="white" stroke-miterlimit="10"/>
<path d="M210.046 116.311L150.916 74.166" stroke="white" stroke-miterlimit="10"/>
<path d="M224.38 136.78L165.25 94.6348" stroke="white" stroke-miterlimit="10"/>
<path d="M283.991 39.8831L268.245 15.0195H89.7304V15.0264H36.0402L20.2949 39.8968L20.7745 41.6585L89.7304 42.2481L95.4447 41.4734L150.574 39.6843L212.993 41.5077L216.768 41.1581L283.504 41.6517L283.991 39.8831Z" fill="#FE0000"/>
<path d="M246.264 41.3772C246.264 51.8107 254.719 60.2699 265.147 60.2699C275.575 60.2699 284.03 51.8107 284.03 41.3772C284.03 40.8768 284.003 40.3764 283.969 39.8828H246.325C246.291 40.3764 246.264 40.8768 246.264 41.3772Z" fill="#FE0000"/>
<path d="M170.922 41.3772C170.922 51.8107 179.377 60.2699 189.805 60.2699C200.234 60.2699 208.689 51.8107 208.689 41.3772C208.689 40.8768 208.661 40.3764 208.627 39.8828H170.984C170.949 40.3764 170.922 40.8768 170.922 41.3772Z" fill="#FE0000"/>
<path d="M95.5742 41.3772C95.5742 51.8107 104.029 60.2699 114.458 60.2699C124.886 60.2699 133.341 51.8107 133.341 41.3772C133.341 40.8768 133.314 40.3764 133.279 39.8828H95.6359C95.6016 40.3764 95.5742 40.8768 95.5742 41.3772Z" fill="#FE0000"/>
<path d="M20.2324 41.3772C20.2324 51.8107 28.6875 60.2699 39.1158 60.2699C49.5441 60.2699 57.9992 51.8107 57.9992 41.3772C57.9992 40.8768 57.9717 40.3764 57.9375 39.8828H20.2941C20.2598 40.3764 20.2324 40.8768 20.2324 41.3772Z" fill="#FE0000"/>
<path d="M57.9023 41.3772C57.9023 51.8107 66.3574 60.2699 76.7857 60.2699C87.214 60.2699 95.6691 51.8107 95.6691 41.3772C95.6691 40.8768 95.6417 40.3764 95.6074 39.8828H57.9709C57.9297 40.3764 57.9023 40.8768 57.9023 41.3772Z" fill="white"/>
<path d="M133.252 41.3772C133.252 51.8107 141.707 60.2699 152.135 60.2699C162.564 60.2699 171.019 51.8107 171.019 41.3772C171.019 40.8768 170.991 40.3764 170.957 39.8828H133.314C133.273 40.3764 133.252 40.8768 133.252 41.3772Z" fill="white"/>
<path d="M208.594 41.3772C208.594 51.8107 217.049 60.2699 227.477 60.2699C237.905 60.2699 246.36 51.8107 246.36 41.3772C246.36 40.8768 246.333 40.3764 246.299 39.8828H208.655C208.621 40.3764 208.594 40.8768 208.594 41.3772Z" fill="white"/>
<path d="M95.6709 40.0339L98.4938 15.0195H89.7305V15.0264H63.5226L57.9453 39.8831L61.8714 42.2481H91.9847L95.6709 40.0339Z" fill="white"/>
<path d="M133.314 39.8831L136.261 42.2481L136.87 42.4263L150.574 41.9396L165.922 42.4263L170.958 39.8831L169.286 15.0195H135.055L133.314 39.8831Z" fill="white"/>
<path d="M246.347 40.0339L240.729 15.0195H205.422L208.615 39.8831L215.007 43.7219L216.768 43.5437L240.188 43.7356L246.347 40.0339Z" fill="white"/>
<path d="M283.976 39.9242L283.99 39.8831L268.244 15.0195H240.728H205.421H169.292H135.061H98.4929H89.7295V15.0264H36.0394L20.3009 39.8831H20.2941V39.8899C20.253 40.3766 20.2324 40.8702 20.2324 41.3706C20.2324 51.8041 28.6875 60.2633 39.1158 60.2633C49.1056 60.2633 57.2797 52.5033 57.9512 42.6799C58.6295 52.5033 66.7968 60.2633 76.7866 60.2633C86.7764 60.2633 94.9505 52.5033 95.622 42.6799C96.3003 52.5033 104.468 60.2633 114.457 60.2633C124.447 60.2633 132.621 52.5033 133.293 42.6799C133.971 52.5033 142.138 60.2633 152.128 60.2633C162.118 60.2633 170.292 52.5033 170.964 42.6799C171.642 52.5033 179.809 60.2633 189.799 60.2633C199.789 60.2633 207.963 52.5033 208.634 42.6799C209.306 52.5033 217.48 60.2633 227.47 60.2633C237.46 60.2633 245.634 52.5033 246.305 42.6799C246.984 52.5033 255.151 60.2633 265.141 60.2633C275.569 60.2633 284.024 51.8041 284.024 41.3706C284.038 40.8908 284.01 40.404 283.976 39.9242Z" stroke="#FE0000" stroke-miterlimit="10" stroke-linecap="round" stroke-linejoin="round"/>
<path d="M57.9453 42.9397V40.0742" stroke="#FE0000" stroke-miterlimit="10" stroke-linecap="round"/>
<path d="M95.6504 39.8965V44.558" stroke="#FE0000" stroke-miterlimit="10" stroke-linecap="round" stroke-linejoin="round"/>
<path d="M133.252 43.2903V40.0684" stroke="#FE0000" stroke-miterlimit="10" stroke-linecap="round" stroke-linejoin="round"/>
<path d="M170.957 42.9407V40.0684" stroke="#FE0000" stroke-miterlimit="10" stroke-linecap="round" stroke-linejoin="round"/>
<path d="M208.648 43.0233V39.9316" stroke="#FE0000" stroke-miterlimit="10" stroke-linecap="round" stroke-linejoin="round"/>
<path d="M246.348 43.0978V39.8965" stroke="#FE0000" stroke-miterlimit="10" stroke-linecap="round" stroke-linejoin="round"/>
<path d="M20.2949 39.8965H284.039" stroke="#EF6F6F" stroke-miterlimit="10" stroke-linecap="round"/>
<path d="M241.858 281.587C237.596 277.433 223.66 264.326 230.464 253.406C239.056 239.627 254.472 247.579 251.115 231.257C247.757 214.935 245.229 206.394 261.584 199.525C277.939 192.649 271.656 186.102 273.04 176.725C274.835 164.57 288.059 155.337 302.777 160.382C314.123 164.276 311.965 186.904 304.216 193.492C296.466 200.08 312.945 205.797 306.21 221.537C299.481 237.276 282.585 231.792 283.798 244.056C284.099 247.072 289.149 261.228 285.86 269.433C284.209 273.546 280.694 277.81 273.863 281.341" fill="white"/>
<path d="M241.858 281.587C237.596 277.433 223.66 264.326 230.464 253.406C239.056 239.627 254.472 247.579 251.115 231.257C247.757 214.935 245.229 206.394 261.584 199.525C277.939 192.649 271.656 186.102 273.04 176.725C274.835 164.57 288.059 155.337 302.777 160.382C314.123 164.276 311.965 186.904 304.216 193.492C296.466 200.08 312.945 205.797 306.21 221.537C299.481 237.276 282.585 231.792 283.798 244.056C284.099 247.072 289.149 261.228 285.86 269.433C284.209 273.546 280.694 277.81 273.863 281.341" stroke="#FE0000" stroke-miterlimit="10"/>
<path d="M248.415 281.479C249.758 278.373 251.108 275.275 252.458 272.169C255.795 264.505 259.145 256.841 262.509 249.191C266.785 239.464 271.081 229.743 275.404 220.036C279.584 210.672 283.784 201.315 288.073 191.999C291.095 185.438 294.103 178.851 297.419 172.427C297.672 171.941 297.926 171.454 298.186 170.967C298.344 170.672 297.898 170.419 297.741 170.707C294.582 176.609 291.8 182.724 288.984 188.797C284.757 197.928 280.618 207.107 276.514 216.293C272.136 226.082 267.799 235.885 263.482 245.695C259.96 253.702 256.452 261.715 252.958 269.729C251.841 272.286 250.731 274.843 249.614 277.407C249.094 278.613 248.47 279.813 248.032 281.054C248.011 281.108 247.984 281.156 247.963 281.211C247.84 281.52 248.278 281.787 248.415 281.479Z" fill="#FE0000"/>
<path d="M278.76 212.42C285.235 212.063 291.717 211.7 298.192 211.343C299.11 211.295 300.035 211.24 300.953 211.192C301.282 211.172 301.282 210.658 300.953 210.678C294.478 211.035 287.996 211.398 281.522 211.755C280.603 211.803 279.678 211.857 278.76 211.905C278.431 211.926 278.431 212.44 278.76 212.42Z" fill="#FE0000"/>
<path d="M256.356 262.989C263.564 262.18 270.779 261.365 277.987 260.556C279.008 260.439 280.029 260.323 281.05 260.213C281.372 260.179 281.379 259.665 281.05 259.699C273.842 260.508 266.627 261.324 259.419 262.132C258.398 262.249 257.377 262.366 256.356 262.475C256.027 262.516 256.027 263.031 256.356 262.989Z" fill="#FE0000"/>
<path d="M254.459 207.574C255.925 210.865 257.392 214.155 258.858 217.452C261.194 222.703 263.538 227.961 265.874 233.212C266.415 234.426 266.957 235.646 267.498 236.859C267.635 237.161 268.074 236.9 267.943 236.599C266.477 233.308 265.011 230.018 263.545 226.721C261.208 221.47 258.865 216.212 256.528 210.961C255.987 209.747 255.446 208.527 254.904 207.314C254.774 207.012 254.329 207.273 254.459 207.574Z" fill="#FE0000"/>
<path d="M286.291 174.037C285.208 175.635 283.317 176.238 282.07 175.388C280.823 174.538 280.693 172.557 281.782 170.966C282.865 169.369 284.756 168.766 286.003 169.616C287.25 170.459 287.38 172.44 286.291 174.037Z" fill="#FE0000"/>
<path d="M287.093 182.661C287.093 183.505 286.408 184.19 285.565 184.19C284.722 184.19 284.037 183.505 284.037 182.661C284.037 181.818 284.722 181.133 285.565 181.133C286.408 181.133 287.093 181.818 287.093 182.661Z" fill="#FE0000"/>
<path d="M298.152 222.037C298.152 223.675 296.823 225.005 295.186 225.005C293.548 225.005 292.219 223.675 292.219 222.037C292.219 220.398 293.548 219.068 295.186 219.068C296.823 219.068 298.152 220.398 298.152 222.037Z" fill="#FE0000"/>
<path d="M41.2676 281.477C37.1565 281.628 20.5342 285.282 20.8083 271.75C20.9454 264.84 18.9309 265.087 14.8884 262.379C10.839 259.671 10.9418 257.937 11.2913 254.071C11.6476 250.204 7.79003 252.076 5.22748 246.989C2.15791 240.902 5.85099 236.364 11.8188 235.274C17.7867 234.184 17.6086 240.621 19.9861 242.54C22.3568 244.46 25.6388 240.333 30.1952 245.927C33.1688 249.58 28.5508 257.916 32.929 257.135" fill="white"/>
<path d="M41.2676 281.477C37.1565 281.628 20.5342 285.282 20.8083 271.75C20.9454 264.84 18.9309 265.087 14.8884 262.379C10.839 259.671 10.9418 257.937 11.2913 254.071C11.6476 250.204 7.79003 252.076 5.22748 246.989C2.15791 240.902 5.85099 236.364 11.8188 235.274C17.7867 234.184 17.6086 240.621 19.9861 242.54C22.3568 244.46 25.6388 240.333 30.1952 245.927C33.1688 249.58 28.5508 257.916 32.929 257.135" stroke="#FE0000" stroke-miterlimit="10"/>
<path d="M33.4498 269.433C27.619 261.549 21.4662 253.92 15.0324 246.523C14.6007 246.023 13.8744 246.756 14.3061 247.25C20.6782 254.578 26.7831 262.146 32.566 269.954C32.9497 270.475 33.8404 269.961 33.4498 269.433Z" fill="#FE0000"/>
<path d="M23.5426 246.166C23.3302 249.388 23.1109 252.61 22.8985 255.825C22.8711 256.277 22.8368 256.737 22.8094 257.189C22.9807 257.018 23.152 256.846 23.3233 256.675C20.3702 256.922 17.4171 257.162 14.464 257.408C13.8063 257.463 13.8063 258.492 14.464 258.437C17.4171 258.19 20.3702 257.95 23.3233 257.703C23.6179 257.676 23.8166 257.484 23.8372 257.189C24.0496 253.967 24.2689 250.745 24.4813 247.53C24.5087 247.078 24.5429 246.619 24.5703 246.166C24.6114 245.501 23.5837 245.508 23.5426 246.166Z" fill="#FE0000"/>
<path d="M14.7517 201.45C7.34495 195.418 5.5772 176.772 16.1289 171.11C29.1746 164.111 42.8301 174.942 44.5498 186.081C45.8722 194.671 39.8701 200.676 55.4989 206.969C71.1277 213.269 68.7159 221.09 65.5024 236.048C62.289 251.006 72.8543 245.522 81.0627 258.149C87.565 268.158 78.4248 278.358 74.348 282.169L42.3778 282.012C41.3432 281.402 40.3497 280.723 39.4179 279.955C29.0923 271.51 33.176 258.17 34.2654 247.777C35.7522 233.601 19.2738 241.56 12.84 227.143C6.41311 212.727 22.1584 207.49 14.7517 201.45Z" fill="white" stroke="#FE0000" stroke-miterlimit="10"/>
<path d="M68.7442 281.696C67.463 278.858 66.1748 276.02 64.8867 273.189C61.7007 266.176 58.5078 259.177 55.3012 252.178C51.2107 243.253 47.0996 234.327 42.9543 225.423C38.9529 216.826 34.931 208.237 30.8268 199.695C27.9422 193.69 25.0713 187.658 21.9127 181.79C21.6729 181.337 21.4262 180.892 21.1727 180.439C20.8507 179.863 19.9599 180.378 20.282 180.96C23.2899 186.355 25.9483 191.956 28.6342 197.508C32.6699 205.858 36.6165 214.256 40.5357 222.66C44.7221 231.64 48.8811 240.641 53.0127 249.649C56.3837 256.997 59.7411 264.353 63.0916 271.708C64.1604 274.066 65.2293 276.418 66.2982 278.776C66.7915 279.859 67.2095 281.031 67.7919 282.066C67.8193 282.114 67.833 282.162 67.8604 282.21C68.1276 282.814 69.0115 282.293 68.7442 281.696Z" fill="#FE0000"/>
<path d="M39.0827 218.301C32.8819 217.972 26.681 217.643 20.4802 217.313C19.61 217.266 18.7399 217.224 17.8697 217.176C17.5408 217.156 17.5408 217.67 17.8697 217.691C24.0705 218.02 30.2713 218.349 36.4722 218.678C37.3423 218.726 38.2125 218.767 39.0827 218.815C39.4115 218.835 39.4115 218.321 39.0827 218.301Z" fill="#FE0000"/>
<path d="M60.495 264.642C53.5337 263.888 46.5723 263.14 39.6041 262.386C38.6174 262.277 37.6239 262.174 36.6373 262.064C36.3084 262.03 36.3084 262.544 36.6373 262.578C43.5986 263.332 50.56 264.08 57.5282 264.834C58.5149 264.943 59.5084 265.046 60.495 265.156C60.8239 265.19 60.8239 264.676 60.495 264.642Z" fill="#FE0000"/>
<path d="M61.8723 214.105C60.4677 217.128 59.0699 220.144 57.6653 223.167C55.4317 227.986 53.1912 232.799 50.9575 237.618C50.4436 238.728 49.9297 239.839 49.409 240.943C49.272 241.237 49.7105 241.505 49.8544 241.203C51.259 238.18 52.6567 235.164 54.0613 232.141C56.295 227.321 58.5355 222.509 60.7692 217.69C61.283 216.579 61.7969 215.469 62.3177 214.365C62.4547 214.064 62.0093 213.803 61.8723 214.105Z" fill="#FE0000"/>
<path d="M31.8807 183.628C32.9153 185.088 34.7241 185.643 35.9163 184.868C37.1085 184.094 37.2319 182.277 36.1904 180.817C35.1558 179.357 33.3469 178.802 32.1547 179.576C30.9694 180.351 30.8392 182.161 31.8807 183.628Z" fill="#FE0000"/>
<path d="M31.1211 191.523C31.1211 192.298 31.772 192.922 32.5805 192.922C33.389 192.922 34.0399 192.298 34.0399 191.523C34.0399 190.749 33.389 190.125 32.5805 190.125C31.772 190.125 31.1211 190.756 31.1211 191.523Z" fill="white"/>
<path d="M23.3776 230.318C24.9443 230.318 26.2142 229.103 26.2142 227.603C26.2142 226.104 24.9443 224.889 23.3776 224.889C21.811 224.889 20.541 226.104 20.541 227.603C20.541 229.103 21.811 230.318 23.3776 230.318Z" fill="#FE0000"/>
<path d="M82.1578 281.676C82.24 281.861 72.0035 275.424 72.2708 265.553C72.538 255.681 83.4528 259.308 85.6316 254.756C87.8036 250.197 83.2746 246.036 87.0294 240.723C91.6817 234.136 96.6629 241.656 97.2659 232.737C97.7935 224.991 105.282 228.706 108.249 224.065C111.223 219.425 117.211 216.532 122.062 221.31C127.215 226.382 124.851 232.086 121.699 236.768C118.547 241.45 121.521 243.274 119.815 248.442C118.109 253.611 108.331 253.563 108.249 258.883C108.167 264.202 112.12 271.181 107.66 276.178C103.199 281.175 98.0538 282.403 98.0538 282.403L82.1578 281.676Z" fill="#FE0000"/>
<path d="M86.5286 281.196C89.1734 275.808 91.6058 270.311 94.1272 264.868C97.4914 257.594 100.869 250.321 104.46 243.151C106.063 239.942 107.7 236.748 109.509 233.649C109.674 233.361 109.235 233.101 109.064 233.389C105.528 239.428 102.534 245.797 99.5264 252.103C96.2033 259.089 92.983 266.129 89.7352 273.149C88.5362 275.747 87.344 278.358 86.0833 280.929C85.9394 281.231 86.3779 281.491 86.5286 281.196Z" fill="white"/>
<path d="M112.018 246.447C109.072 246.755 106.126 247.057 103.179 247.366C102.754 247.407 102.33 247.455 101.905 247.496C101.576 247.53 101.576 248.044 101.905 248.01C104.851 247.701 107.797 247.4 110.744 247.091C111.168 247.05 111.593 247.002 112.018 246.961C112.347 246.927 112.347 246.413 112.018 246.447Z" fill="white"/>
<path d="M89.8867 242.252L96.4644 259.205" stroke="white" stroke-width="0.75" stroke-miterlimit="10" stroke-linecap="round"/>
<path d="M108.25 241.662C108.25 242.444 108.983 243.074 109.881 243.074C110.778 243.074 111.511 242.444 111.511 241.662C111.511 240.881 110.778 240.25 109.881 240.25C108.983 240.25 108.25 240.888 108.25 241.662Z" fill="white"/>
<path d="M102.37 233.546C102.823 234.327 103.816 234.595 104.597 234.142C105.378 233.69 105.646 232.696 105.193 231.914C104.741 231.133 103.748 230.865 102.967 231.318C102.185 231.77 101.918 232.764 102.37 233.546Z" fill="white"/>
<path d="M98.0547 265.963C98.0547 266.936 98.966 267.725 100.083 267.725C101.206 267.725 102.111 266.936 102.111 265.963C102.111 264.99 101.2 264.201 100.083 264.201C98.966 264.201 98.0547 264.99 98.0547 265.963Z" fill="white"/>
<path d="M108.559 229.117C108.559 229.515 108.881 229.844 109.285 229.844C109.682 229.844 110.011 229.522 110.011 229.117C110.011 228.72 109.689 228.391 109.285 228.391C108.887 228.391 108.559 228.713 108.559 229.117Z" fill="white"/>
<path d="M297.441 280.943C294.872 280.943 292.302 280.943 289.733 280.943C282.806 280.943 275.872 280.943 268.945 280.943C258.667 280.943 248.397 280.943 238.119 280.943C225.58 280.943 213.048 280.943 200.51 280.943C186.827 280.943 173.144 280.943 159.461 280.943C145.559 280.943 131.65 280.943 117.748 280.943C104.873 280.943 91.9921 280.943 79.1177 280.943C68.1961 280.943 57.2744 280.943 46.3596 280.943C38.5075 280.943 30.6554 280.943 22.8033 280.943C19.0966 280.943 15.3761 280.882 11.6693 280.943C11.5048 280.943 11.3473 280.943 11.1828 280.943C10.0797 280.943 10.0797 282.657 11.1828 282.657C13.7522 282.657 16.3216 282.657 18.891 282.657C25.8181 282.657 32.7521 282.657 39.6792 282.657C49.9567 282.657 60.2275 282.657 70.5051 282.657C83.0437 282.657 95.5756 282.657 108.114 282.657C121.797 282.657 135.48 282.657 149.163 282.657C163.065 282.657 176.974 282.657 190.876 282.657C203.751 282.657 216.632 282.657 229.506 282.657C240.428 282.657 251.35 282.657 262.264 282.657C270.117 282.657 277.969 282.657 285.821 282.657C289.527 282.657 293.248 282.719 296.955 282.657C297.119 282.657 297.277 282.657 297.441 282.657C298.544 282.657 298.544 280.943 297.441 280.943Z" fill="#161522"/>
</svg>
