<svg width="19" height="20" viewBox="0 0 19 20" fill="none" xmlns="http://www.w3.org/2000/svg">
<path d="M17.8417 2.96695H14.3242L14.159 2.03503C13.9498 0.855852 12.8586 0 11.5653 0H7.4834C6.19012 0 5.09892 0.855852 4.88971 2.03503L4.72448 2.96695H1.20705C0.786256 2.96695 0.446289 3.30692 0.446289 3.72771C0.446289 4.1485 0.786256 4.48847 1.20705 4.48847H17.8415C18.2622 4.48847 18.6022 4.1485 18.6022 3.72771C18.6022 3.30692 18.2625 2.96695 17.8417 2.96695ZM6.27117 2.95744L6.38767 2.30131C6.46731 1.85675 6.93803 1.52153 7.48364 1.52153H11.5656C12.1112 1.52153 12.5819 1.85675 12.6615 2.30131L12.778 2.95744H6.27117Z" fill="#D6D6D6"/>
<path d="M16.1157 5.76764C15.7008 5.74148 15.3335 6.0553 15.305 6.4749L14.5966 16.8081C14.5395 17.6164 13.6147 18.2738 12.5342 18.2738L6.51479 18.2726C5.43427 18.2726 4.50949 17.6152 4.45243 16.8081L3.74399 6.47368C3.71546 6.05407 3.34696 5.74025 2.93329 5.76642C2.51369 5.79495 2.19749 6.15869 2.22603 6.57711L2.93448 16.9128C3.0474 18.5282 4.62004 19.7929 6.51491 19.7929H12.5343C14.4291 19.7929 16.0006 18.5282 16.1147 16.9115L16.8232 6.57711C16.8517 6.15988 16.5353 5.79618 16.1157 5.76764Z" fill="#D6D6D6"/>
<path d="M7.45148 16.1112C7.46575 16.1112 7.47882 16.1112 7.49309 16.11C7.91269 16.0874 8.23482 15.7284 8.21106 15.3088L7.73559 6.48406C7.713 6.06446 7.35758 5.74114 6.93442 5.7649C6.51481 5.78749 6.19268 6.14647 6.21644 6.56607L6.69192 15.3909C6.71331 15.7974 7.04971 16.1112 7.45148 16.1112Z" fill="#D6D6D6"/>
<path d="M11.5974 16.1112C11.9992 16.1112 12.3344 15.7974 12.3558 15.3909L12.8313 6.56607C12.8539 6.14647 12.5318 5.78867 12.1133 5.7649C11.6902 5.74113 11.3359 6.06445 11.3122 6.48406L10.8367 15.3088C10.8141 15.7284 11.1362 16.0862 11.5547 16.11C11.5701 16.1112 11.5844 16.1112 11.5974 16.1112Z" fill="#D6D6D6"/>
</svg>
