<svg width="16" height="17" viewBox="0 0 16 17" fill="none" xmlns="http://www.w3.org/2000/svg">
<path d="M11.0244 16.5V10.3084H13.0975L13.4078 7.90133H11.0244V6.36458C11.0244 5.66768 11.2178 5.19275 12.2172 5.19275L13.4918 5.19215V3.03934C13.2713 3.01006 12.5148 2.9445 11.6345 2.9445C9.79671 2.9445 8.53867 4.0662 8.53867 6.12624V7.90133H6.46018V10.3084H8.53867V16.5H0.888889C0.397973 16.5 0 16.102 0 15.6111V1.38889C0 0.897973 0.397973 0.5 0.888889 0.5H15.1111C15.602 0.5 16 0.897973 16 1.38889V15.6111C16 16.102 15.602 16.5 15.1111 16.5H11.0244Z" fill="black"/>
</svg>
