<svg width="70" height="22" viewBox="0 0 70 22" fill="none" xmlns="http://www.w3.org/2000/svg">
<path d="M39.1409 12.0171C40.0364 12.41 40.4118 13.6376 39.83 14.4788C38.745 16.0453 37.048 16.9432 34.8501 16.9287C30.9721 16.9024 28.2456 14.0028 28.2709 9.68056C28.2927 5.79078 30.843 2.66577 34.5363 2.69082C37.9918 2.71456 40.3261 5.12226 40.3044 8.86832C40.3044 8.96589 40.302 9.06215 40.2983 9.15708C40.2718 9.92977 39.6828 10.5363 38.9743 10.531L31.6432 10.4809C31.6577 12.5564 33.1278 13.7483 34.9213 13.7602C36.0064 13.7681 36.815 13.3818 37.3376 12.6025C37.7528 11.9841 38.4831 11.7283 39.1336 12.0144L39.1409 12.0171ZM37.0106 8.06663L37.0371 7.95059C37.0456 6.56742 36.0209 5.66683 34.5182 5.6576C33.1459 5.64837 31.9811 6.53313 31.6553 8.02971L37.0106 8.06663Z" fill="#FF4747"/>
<path d="M69.843 4.74571V11.4044C69.843 14.7709 68.0064 16.5349 65.2113 16.5349C63.4788 16.5349 62.1381 15.667 61.4943 14.2901V14.4696C61.4943 14.6581 61.4683 14.8375 61.4068 14.9978V15.026C60.9452 17.3644 58.9785 19.1194 56.6188 19.1194C54.329 19.1194 51.735 17.8451 51.735 14.4696V8.54681C51.735 6.72638 50.8558 5.60464 49.4369 5.60464C47.966 5.60464 46.9033 6.81228 46.9033 8.91474V14.4696C46.9033 15.4593 46.1637 16.2516 45.2584 16.2516H45.2324C44.3271 16.2516 43.5875 15.4593 43.5875 14.4696V4.70853C43.5875 3.74704 44.3106 2.97271 45.1981 2.97271H45.3022C46.1815 2.97271 46.9045 3.74575 46.9045 4.70853C47.7057 3.35987 49.0725 2.69067 50.631 2.69067C53.2947 2.69067 55.0532 4.5111 55.0532 7.56609V13.8376C55.0355 13.885 55.0355 13.9414 55.0355 13.9978C55.0355 14.0542 55.0355 14.1107 55.0532 14.1671C55.1313 15.0068 55.8023 15.6567 56.62 15.6567C57.4993 15.6567 58.2045 14.9119 58.2045 13.9966V4.74571C58.2045 3.76498 58.9442 2.97271 59.8494 2.97271C60.7547 2.97271 61.4943 3.76498 61.4943 4.74571V9.80957C61.4943 12.0441 62.5215 13.4504 64.28 13.4504C65.7343 13.4504 66.5343 12.4133 66.5343 10.5083V4.74571C66.5343 3.76498 67.2656 2.97271 68.1792 2.97271H68.2052C69.1117 2.97271 69.843 3.76498 69.843 4.74571Z" fill="#FF4747"/>
<path d="M25.6579 16.7454C25.3113 17.1502 24.8792 17.3502 24.364 17.3502C23.9023 17.3502 23.5082 17.1947 23.1853 16.8898C22.8684 16.58 22.6808 16.185 22.6274 15.7049L22.0505 7.31932C22.022 6.99964 21.9211 6.83919 21.7431 6.83919C21.5603 6.83919 21.4309 6.97372 21.3537 7.23909L19.1186 13.7807C18.7577 14.7706 18.1179 15.2655 17.1897 15.2655C16.8288 15.2655 16.4774 15.131 16.1273 14.8607C15.7807 14.5953 15.5065 14.246 15.2999 13.8202L13.0636 7.31932C12.9864 7.07987 12.857 6.95891 12.6742 6.95891C12.5199 6.95891 12.419 7.11937 12.3668 7.43904C12.3668 7.43904 11.6747 16.2147 11.5632 16.4245C11.251 19.1744 9.00039 21.3097 6.26905 21.3097C3.31692 21.3097 0.921509 18.8251 0.921509 15.7642V10.0112C0.921509 9.05593 1.66696 8.28575 2.58097 8.28575C3.04747 8.28575 3.4558 8.47582 3.76443 8.7955C4.05762 9.10036 4.24992 9.53112 4.24992 10.01V15.7642C4.24992 16.9145 5.14968 17.8587 6.26905 17.8587C7.38485 17.8587 8.21339 16.9108 8.28342 15.7642C8.49115 12.4193 9.93813 2.46865 9.93813 2.46865C10.0153 1.87867 10.2456 1.40348 10.6302 1.04308C11.0207 0.68514 11.4813 0.5 12.0202 0.5C13.1265 0.5 13.847 0.999877 14.1794 1.98482L16.8051 9.8508C16.9344 10.1162 17.0603 10.2507 17.1897 10.2507C17.3677 10.2507 17.4971 10.1162 17.5743 9.8508L20.1999 1.98482C20.5323 0.999877 21.2386 0.5 22.3212 0.5C22.9123 0.5 23.393 0.68514 23.7681 1.04555C24.1385 1.40595 24.364 1.88114 24.4412 2.47112L26.0615 15.347C26.1398 15.8814 26.0045 16.3455 25.6579 16.7454Z" fill="#FF4747"/>
<path d="M2.671 3.78564H2.46163C1.61539 3.78564 0.921509 4.48178 0.921509 5.34164V5.51428C0.921509 6.37414 1.61539 7.07139 2.46163 7.07139H2.671C3.51724 7.07139 4.20345 6.37526 4.20345 5.51428V5.34164C4.20345 4.48178 3.51834 3.78564 2.671 3.78564Z" fill="#FF4747"/>
</svg>
