<svg width="16" height="17" viewBox="0 0 16 17" fill="none" xmlns="http://www.w3.org/2000/svg">
<path d="M8.822 0.5C9.72235 0.501488 10.1786 0.506248 10.5729 0.517985L10.7281 0.523065C10.9075 0.529441 11.0845 0.537441 11.2978 0.547442C12.1491 0.586771 12.7299 0.721448 13.2399 0.919454C13.7672 1.12279 14.2126 1.39747 14.6572 1.84215C15.1012 2.28683 15.376 2.73352 15.58 3.25953C15.7773 3.76888 15.912 4.35024 15.952 5.2016C15.9615 5.41494 15.9692 5.5919 15.9755 5.77131L15.9806 5.92658C15.9922 6.32079 15.9976 6.77711 15.9993 7.67746L15.9999 8.27404C16 8.34692 16 8.42213 16 8.49973L15.9999 8.72542L15.9994 9.322C15.9979 10.2223 15.9932 10.6786 15.9814 11.0729L15.9763 11.2281C15.97 11.4075 15.962 11.5845 15.952 11.7978C15.9126 12.6491 15.7773 13.2299 15.58 13.7399C15.3766 14.2672 15.1012 14.7126 14.6572 15.1572C14.2126 15.6012 13.7652 15.876 13.2399 16.08C12.7299 16.2773 12.1491 16.412 11.2978 16.452C11.0845 16.4615 10.9075 16.4692 10.7281 16.4755L10.5729 16.4806C10.1786 16.4922 9.72235 16.4976 8.822 16.4993L8.22542 16.4999C8.15253 16.5 8.07733 16.5 7.99973 16.5L7.77404 16.4999L7.17746 16.4994C6.27711 16.4979 5.82079 16.4932 5.42658 16.4814L5.27131 16.4763C5.0919 16.47 4.91494 16.462 4.7016 16.452C3.85024 16.4126 3.27022 16.2773 2.75953 16.08C2.23284 15.8766 1.78683 15.6012 1.34215 15.1572C0.897471 14.7126 0.623461 14.2652 0.419454 13.7399C0.221448 13.2299 0.0874431 12.6491 0.0474418 11.7978C0.0379374 11.5845 0.0301851 11.4075 0.0239049 11.2281L0.0188727 11.0729C0.00716831 10.6786 0.0018322 10.2223 0.000104145 9.322L0 7.67746C0.00148805 6.77711 0.00624822 6.32079 0.0179846 5.92658L0.0230648 5.77131C0.029441 5.5919 0.0374414 5.41494 0.0474418 5.2016C0.0867711 4.34957 0.221448 3.76955 0.419454 3.25953C0.622789 2.73284 0.897471 2.28683 1.34215 1.84215C1.78683 1.39747 2.23352 1.12346 2.75953 0.919454C3.26955 0.721448 3.84957 0.587443 4.7016 0.547442C4.91494 0.537937 5.0919 0.530185 5.27131 0.523905L5.42658 0.518873C5.82079 0.507168 6.27711 0.501832 7.17746 0.500104L8.822 0.5ZM7.99973 4.49958C5.78932 4.49958 3.99958 6.29126 3.99958 8.49973C3.99958 10.7101 5.79126 12.4999 7.99973 12.4999C10.2101 12.4999 11.9999 10.7081 11.9999 8.49973C11.9999 6.28932 10.2081 4.49958 7.99973 4.49958ZM7.99973 6.09963C9.32529 6.09963 10.3998 7.17376 10.3998 8.49973C10.3998 9.82529 9.32561 10.8998 7.99973 10.8998C6.67416 10.8998 5.59963 9.82561 5.59963 8.49973C5.59963 7.17416 6.67376 6.09963 7.99973 6.09963ZM12.1999 3.29954C11.6484 3.29954 11.1998 3.74747 11.1998 4.29889C11.1998 4.8503 11.6478 5.29893 12.1999 5.29893C12.7512 5.29893 13.1999 4.851 13.1999 4.29889C13.1999 3.74747 12.7505 3.29884 12.1999 3.29954Z" fill="black"/>
</svg>
